<svg xmlns="http://www.w3.org/2000/svg" viewBox="0 0 512 512" fill="none">
  <rect width="512" height="512" rx="100" fill="#4d7c0f"/>
  <g transform="translate(160,80)">
    <path d="M100 300 C100 200, 80 150, 20 100 C60 140, 40 200, 40 280 Z" fill="rgba(255,255,255,0.9)"/>
    <path d="M80 280 C80 180, 110 140, 180 80 C140 130, 120 190, 120 270 Z" fill="rgba(255,255,255,0.7)"/>
    <path d="M95 30 C80 60, 60 120, 100 250" stroke="rgba(255,255,255,0.6)" stroke-width="6" stroke-linecap="round" fill="none"/>
    <path d="M50 40 L95 30 L70 8" fill="rgba(255,255,255,0.5)"/>
    <path d="M165 55 L180 70 L150 85" fill="rgba(255,255,255,0.45)"/>
    <path d="M125 320 C125 260, 150 230, 200 200 C160 230, 160 280, 155 310 Z" fill="rgba(255,255,255,0.55)"/>
    <path d="M30 20 L50 40 L25 55" fill="rgba(255,255,255,0.4)"/>
    <path d="M190 90 L165 55 L200 40" fill="rgba(255,255,255,0.35)"/>
  </g>
</svg>
